<svg id="Layer_1" data-name="Layer 1" xmlns="http://www.w3.org/2000/svg" viewBox="0 0 901.56 204"><defs><style>.cls-1{fill:#929497;}</style></defs><title>logo_typeonly_chandraThomas</title><path class="cls-1" d="M197.1,44.1c-2.4,6.9-3.9,11.1-5.4,11.1-.6,0-1.8-1.2-2.1-2.7-12-34.8-41.4-45-72-45C63,7.5,32.1,46.8,32.1,100.2c0,52.2,28.8,96.3,85.2,96.3,39.9,0,65.4-18.3,75.9-39.3,1.2-2.7,1.8-4.8,3.3-4.8.9,0,1.5,1.8,3,7.2l4.8,18.6c-24.6,17.7-55.2,25.8-85.5,25.8C60.6,204,0,169.5,0,104.7,0,37.2,55.8,0,117.9,0c32.7,0,61.5,9,84.9,26.7Z"/><path class="cls-1" d="M112.87,88.27h.3c3.3-8.5,10.8-13,19.8-13,10.5,0,21.8,4.9,21.8,19.3v19.61c0,7.9.7,12.1,3.1,13.3,1.1.6,1.9.9,1.9,1.1s-.6.4-1,.4c-1.1,0-4.8-.2-8-.2s-6.9.2-8.3.2c-.4,0-.7,0-.7-.4s.9-.6,1.7-1.1c2.8-1.9,3.3-5.4,3.3-8.7V99.17c0-17-7.3-21.4-15.8-21.4-10.7,0-18.1,9.8-18.1,21.61v15.4c0,7.3.5,10.7,3.6,12.7,1,.6,1.8,1,1.8,1.2s-.3.3-.8.3c-1.7,0-5.4-.2-8.3-.2s-6.6.2-8.3.2c-.5,0-.9-.1-.9-.5s.9-.6,1.9-1.2c3.1-1.8,3.6-5.2,3.6-8.5V66.07c0-2.7-.8-4.9-3.6-5.4-.4-.1-.9-.2-.9-.6,0-.2.6-.6.9-.6l11-3.2Z"/><path class="cls-1" d="M215.77,113.78c0,6.3.8,12.8,3.5,13.7.5.2.8.5.8.8a.81.81,0,0,1-.9.7c-.4,0-2.8-.2-3.9-.2-1.3,0-2.6.2-3.7.2-.8,0-1.2-.5-1.2-.8,0-2.5-1.4-6.6-1.7-9.4h-.2c-4.3,8.6-11.9,11.5-21.1,11.5-9.7,0-21.3-5.1-21.3-16,0-15.31,22.8-17.61,34.1-17.61h7.6c0-11.7-3.3-18.9-16-18.9-7,0-18.3,3.8-19.2,11.7,0,.3-.2.41-.5.41s-.3,0-.4-.31l-2.7-9.5a58.11,58.11,0,0,1,22.5-4.8c18.2,0,24.3,7.9,24.3,19.51Zm-15.4-14.61c-10.6,0-24.7,2-24.7,15.31,0,8.8,6.8,13.3,14.9,13.3,15,0,17.2-12,17.2-24.2V99.17Z"/><path class="cls-1" d="M238,76.77v11.5h.3c2.8-8.5,11.6-13,20.6-13,10.5,0,21.8,4.9,21.8,19.3v19.61c0,11,.7,12.1,3.2,13.2,1.1.5,1.8,1,1.8,1.2s-.6.4-1,.4c-1.1,0-4.8-.2-8-.2s-6.9.2-8.3.2c-.8,0-1.4-.1-1.4-.3,0-.6,1.5-1,2-1.3,3.2-1.8,3.7-7.2,3.7-14.6V99.17c0-17-7.3-21.4-15.8-21.4-10.7,0-18.1,9.8-18.1,21.61v15.4c0,7.3.5,10.7,3.6,12.7,1,.6,1.8,1,1.8,1.2s-.3.3-.8.3c-1.7,0-5.4-.2-8.3-.2s-6.6.2-8.3.2c-.5,0-.9-.1-.9-.5s.9-.6,1.9-1.2c3.1-1.8,3.6-8.7,3.6-14.3V90.57c0-7.6-1.6-9-3.4-9.6-.8-.2-1.3-.7-1.3-1s.8-.5,1.2-.6Z"/><path class="cls-1" d="M348.37,56.27v50.41c0,12.6,1.1,18.4,3.5,20.1.8.6,1.4,1.1,1.4,1.4s-.2.6-.9.6c-1.6,0-3.1-.4-4.5-.4-1.6,0-3.1.4-4.5.4l-2.4-11c-4.8,7.9-11.7,12.5-21.1,12.5-15.8,0-27.8-11.2-27.8-26.9,0-17,12.5-28.11,29.1-28.11,8.4,0,15.8,4.9,19.8,8.9V70.27c0-3.6-.6-8.1-3.5-9-1.4-.4-1.7-.6-1.7-.8,0-.4.4-.6.9-.8Zm-46.7,47.11c0,11.6,5.5,24.4,18.5,24.4,15.3,0,20.6-12,20.6-25.7s-5.5-24.31-20.3-24.31C306.17,77.77,301.67,91.47,301.67,103.38Z"/><path class="cls-1" d="M387.67,85.27c-1.2-1-2.7-2.6-5.4-2.6-8.4,0-11.1,10.1-11.1,25.91v6.1c0,7.4.9,12.1,4.9,12.6,1.1.1,1.7.5,1.7,1.2,0,.5-.3.5-.8.5-1.7,0-5.4-.2-8.9-.2s-7.2.2-8.9.2c-.5,0-1.2-.2-1.2-.5s.7-.9,1.7-1.3c3.2-1.6,4.1-5.1,4.1-14.3v-29c0-2-1.7-3.3-3.4-3.9-.8-.2-1.5-.6-1.5-.8s.6-.4,1.3-.6l10.4-2.8v14h.2c4.5-9.8,10.4-14.5,20.3-14.5Z"/><path class="cls-1" d="M445.37,113.78c0,6.3.8,12.8,3.5,13.7.5.2.8.5.8.8a.81.81,0,0,1-.9.7c-.4,0-2.8-.2-3.9-.2-1.3,0-2.6.2-3.7.2-.8,0-1.2-.5-1.2-.8,0-2.5-1.4-6.6-1.7-9.4h-.2c-4.3,8.6-11.9,11.5-21.1,11.5-9.7,0-21.3-5.1-21.3-16,0-15.31,22.8-17.61,34.1-17.61h7.6c0-11.7-3.3-18.9-16-18.9-7,0-18.3,3.8-19.2,11.7,0,.3-.2.41-.5.41s-.3,0-.4-.31l-2.7-9.5a58.11,58.11,0,0,1,22.5-4.8c18.2,0,24.3,7.9,24.3,19.51ZM430,99.17c-10.6,0-24.7,2-24.7,15.31,0,8.8,6.8,13.3,14.9,13.3,15,0,17.2-12,17.2-24.2V99.17Z"/><path class="cls-1" d="M551.37,64.77l3.2,11.1a4.4,4.4,0,0,1,.2,1c0,.2,0,.4-.2.4-.4,0-.8-.5-1.3-1.1-4.4-6.6-14.7-8.9-22.2-8.9-3.5,0-6,.3-6,4.1v37.81c0,12.5,1.3,17.2,4.8,18.4,1.5.5,2.5.9,2.5,1.1s-.4.4-1.1.4-3.1-.3-10.1-.3c-7.9,0-10.6.3-11.61.3-.79,0-.89-.3-.89-.6,0-.5,1.1-.5,2.5-.8,4-1,5.3-9.9,5.3-20.3v-36c0-3.8-2.5-4.1-6-4.1-7.5,0-17.81,2.3-22.21,8.9-.5.6-.9,1.1-1.29,1.1-.21,0-.21-.2-.21-.4a4,4,0,0,1,.21-1l3.19-11.1Z"/><path class="cls-1" d="M571.16,88.27h.31c3.29-8.5,10.8-13,19.8-13,10.5,0,21.8,4.9,21.8,19.3v19.61c0,7.9.7,12.1,3.1,13.3,1.1.6,1.9.9,1.9,1.1s-.6.4-1,.4c-1.1,0-4.8-.2-8-.2s-6.9.2-8.3.2c-.4,0-.7,0-.7-.4s.9-.6,1.7-1.1c2.8-1.9,3.3-5.4,3.3-8.7V99.17c0-17-7.3-21.4-15.8-21.4-10.71,0-18.11,9.8-18.11,21.61v15.4c0,7.3.5,10.7,3.6,12.7,1,.6,1.8,1,1.8,1.2s-.3.3-.8.3c-1.7,0-5.4-.2-8.29-.2s-6.61.2-8.31.2c-.5,0-.9-.1-.9-.5s.9-.6,1.9-1.2c3.1-1.8,3.6-5.2,3.6-8.5V66.07c0-2.7-.8-4.9-3.6-5.4-.4-.1-.9-.2-.9-.6,0-.2.6-.6.9-.6l11-3.2Z"/><path class="cls-1" d="M654.06,75.27c15.11,0,29.61,11,29.61,27.51s-14.5,27.5-29.61,27.5-29.6-11-29.6-27.5S639,75.27,654.06,75.27Zm0,52.51c14.81,0,20.11-11.4,20-25,.1-13.61-5.2-25-20-25s-20.09,11.4-20,25C634,116.38,639.26,127.78,654.06,127.78Z"/><path class="cls-1" d="M702.16,76.77v11.7h.2c3.6-8.6,10.4-13.2,17.7-13.2,12.61,0,16.81,5.3,20.11,14.11h.2c2.7-9.61,9.3-14.11,17.2-14.11,17.1,0,22.3,9.4,22.3,21.9v17.51c0,7.4.3,11,2.9,12.9.9.6,1.8.8,1.8,1s-.3.4-.7.4c-1.6,0-5.3-.2-8.5-.2s-6.9.2-7.5.2-.9-.1-.9-.4.4-.6,1.1-.9c2.9-1.5,3.8-5.6,3.8-11.5V98.78c0-16.61-7.8-21-14.6-21-11.8,0-15.4,10.4-15.4,25.41v15.6c0,3.3.7,7.4,3,8.5,1,.5,1.9,1.1,1.9,1.3s-.5.4-1,.4c-1.7,0-5.4-.2-8.6-.2s-6.9.2-7.7.2c-.5,0-.81-.1-.81-.4s.71-.5,1.61-1.1c3.1-2,3.6-5.4,3.6-14.4V94.57c0-12.4-8-16.8-13.81-16.8-9.5,0-17.1,11.61-17.1,22.61v16.8c0,4.9.5,8.3,3.3,10.5.5.3,1.3.4,1.3.9,0,.3-.6.4-1.1.4s-1.7-.2-7.2-.2c-5.2,0-6.6.2-7.3.2-.5,0-.9-.1-.9-.4,0-.5.7-.6,1.4-1.1,2.6-2,3.1-8.4,3.1-14.6V88.38c0-5.61-1.7-6.31-2.8-6.91s-1.4-.6-1.4-1,.2-.6.7-.7Z"/><path class="cls-1" d="M840.77,113.78c0,6.3.8,12.8,3.5,13.7.5.2.8.5.8.8a.81.81,0,0,1-.9.7c-.4,0-2.8-.2-3.9-.2-1.3,0-2.6.2-3.71.2-.79,0-1.19-.5-1.19-.8,0-2.5-1.4-6.6-1.7-9.4h-.2c-4.31,8.6-11.91,11.5-21.11,11.5-9.7,0-21.3-5.1-21.3-16,0-15.31,22.8-17.61,34.1-17.61h7.61c0-11.7-3.3-18.9-16-18.9-7,0-18.3,3.8-19.2,11.7,0,.3-.2.41-.5.41s-.3,0-.4-.31l-2.7-9.5a58.12,58.12,0,0,1,22.51-4.8c18.2,0,24.3,7.9,24.3,19.51Zm-15.4-14.61c-10.61,0-24.71,2-24.71,15.31,0,8.8,6.8,13.3,14.9,13.3,15,0,17.21-12,17.21-24.2V99.17Z"/><path class="cls-1" d="M896.47,87.47c-.31.91-.6,1.3-.91,1.3-.5,0-.69-.7-1.19-2.3-1.81-6.1-10.4-8.7-16.91-8.7-6.9,0-14.4,3.1-14.4,10.4,0,9.91,11.4,10.21,18.8,10.8,8.4.81,19.7,1.91,19.7,13,0,12.9-14.3,18.3-25.1,18.3-8.8,0-17.9-.9-25.7-5.3l2.1-6.5c.8-2.6,1.2-3.4,1.8-3.4s.7.8,1.2,2.1c2.8,8.3,12.7,10.6,20.4,10.6,7.4,0,17.3-2.3,17.3-11.5,0-9.8-11.2-9.9-19.2-10.4-8.2-.8-19.3-4.5-19.3-14.5,0-12.21,14-16.11,23.9-16.11a51.3,51.3,0,0,1,20.1,4.2Z"/></svg>